<svg width="150" height="150" viewBox="0 0 150 150" fill="none" xmlns="http://www.w3.org/2000/svg">
<path d="M114.562 35.4375L41.1875 108.812C38.4375 111.562 33.8125 111.188 31.5625 107.938C23.8125 96.625 19.25 83.25 19.25 69.5V42.0625C19.25 36.9375 23.125 31.125 27.875 29.1875L62.6875 14.9375C70.5625 11.6875 79.3125 11.6875 87.1875 14.9375L112.5 25.25C116.625 26.9375 117.688 32.3125 114.562 35.4375Z" fill="#35C12F" fill-opacity="0.2"/>
<path d="M120.438 44C124.5 40.5625 130.688 43.5 130.688 48.8125V69.5C130.688 100.063 108.5 128.688 78.1875 137.063C76.125 137.625 73.875 137.625 71.75 137.063C62.875 134.563 54.625 130.375 47.5625 124.875C44.5625 122.563 44.25 118.188 46.875 115.5C60.5 101.563 100.375 60.9375 120.438 44Z" fill="#35C12F" fill-opacity="0.2"/>
</svg>
