<svg width="50" height="50" viewBox="0 0 50 50" fill="none" xmlns="http://www.w3.org/2000/svg">
<rect width="50" height="50" rx="25" fill="#ECFDEB"/>
<path d="M29.25 35.5C30.2165 35.5 31 34.7165 31 33.75C31 32.7835 30.2165 32 29.25 32C28.2835 32 27.5 32.7835 27.5 33.75C27.5 34.7165 28.2835 35.5 29.25 35.5Z" fill="#292D32"/>
<path d="M21.25 35.5C22.2165 35.5 23 34.7165 23 33.75C23 32.7835 22.2165 32 21.25 32C20.2835 32 19.5 32.7835 19.5 33.75C19.5 34.7165 20.2835 35.5 21.25 35.5Z" fill="#292D32"/>
<path d="M17.84 16.94L17.64 19.39C17.6 19.86 17.97 20.25 18.44 20.25H33.75C34.17 20.25 34.52 19.93 34.55 19.51C34.68 17.74 33.33 16.3 31.56 16.3H19.27C19.17 15.86 18.97 15.44 18.66 15.09C18.16 14.56 17.46 14.25 16.74 14.25H15C14.59 14.25 14.25 14.59 14.25 15C14.25 15.41 14.59 15.75 15 15.75H16.74C17.05 15.75 17.34 15.88 17.55 16.1C17.76 16.33 17.86 16.63 17.84 16.94Z" fill="#292D32"/>
<path d="M33.5101 21.75H18.1701C17.7501 21.75 17.4101 22.07 17.3701 22.48L17.0101 26.83C16.8701 28.54 18.2101 30 19.9201 30H31.0401C32.5401 30 33.8601 28.77 33.9701 27.27L34.3001 22.6C34.3401 22.14 33.9801 21.75 33.5101 21.75Z" fill="#292D32"/>
</svg>
