<svg width="40" height="40" viewBox="0 0 40 40" fill="none" xmlns="http://www.w3.org/2000/svg">
<rect width="40" height="40" rx="20" fill="#FFF3E6"/>
<path d="M23.5413 28.75C24.3468 28.75 24.9997 28.0971 24.9997 27.2916C24.9997 26.4862 24.3468 25.8333 23.5413 25.8333C22.7359 25.8333 22.083 26.4862 22.083 27.2916C22.083 28.0971 22.7359 28.75 23.5413 28.75Z" fill="#FC8000"/>
<path d="M16.8753 28.75C17.6807 28.75 18.3337 28.0971 18.3337 27.2916C18.3337 26.4862 17.6807 25.8333 16.8753 25.8333C16.0699 25.8333 15.417 26.4862 15.417 27.2916C15.417 28.0971 16.0699 28.75 16.8753 28.75Z" fill="#FC8000"/>
<path d="M14.0337 13.2834L13.867 15.325C13.8337 15.7167 14.142 16.0417 14.5337 16.0417H27.292C27.642 16.0417 27.9337 15.775 27.9587 15.425C28.067 13.95 26.942 12.75 25.467 12.75H15.2253C15.142 12.3834 14.9753 12.0334 14.717 11.7417C14.3003 11.3 13.717 11.0417 13.117 11.0417H11.667C11.3253 11.0417 11.042 11.325 11.042 11.6667C11.042 12.0084 11.3253 12.2917 11.667 12.2917H13.117C13.3753 12.2917 13.617 12.4 13.792 12.5834C13.967 12.775 14.0503 13.025 14.0337 13.2834Z" fill="#FC8000"/>
<path d="M27.0914 17.2917H14.3081C13.9581 17.2917 13.6747 17.5584 13.6414 17.9L13.3414 21.525C13.2247 22.95 14.3414 24.1667 15.7664 24.1667H25.0331C26.2831 24.1667 27.3831 23.1417 27.4747 21.8917L27.7497 18C27.7831 17.6167 27.4831 17.2917 27.0914 17.2917Z" fill="#FC8000"/>
</svg>
