<svg width="14" height="14" viewBox="0 0 14 14" fill="none" xmlns="http://www.w3.org/2000/svg">
<path d="M7.00033 1.16669C3.78616 1.16669 1.16699 3.78585 1.16699 7.00002C1.16699 10.2142 3.78616 12.8334 7.00033 12.8334C10.2145 12.8334 12.8337 10.2142 12.8337 7.00002C12.8337 3.78585 10.2145 1.16669 7.00033 1.16669ZM6.56283 4.66669C6.56283 4.42752 6.76116 4.22919 7.00033 4.22919C7.23949 4.22919 7.43783 4.42752 7.43783 4.66669V7.58335C7.43783 7.82252 7.23949 8.02085 7.00033 8.02085C6.76116 8.02085 6.56283 7.82252 6.56283 7.58335V4.66669ZM7.53699 9.55502C7.50783 9.63085 7.46699 9.68919 7.41449 9.74752C7.35616 9.80002 7.29199 9.84085 7.22199 9.87002C7.15199 9.89919 7.07616 9.91669 7.00033 9.91669C6.92449 9.91669 6.84866 9.89919 6.77866 9.87002C6.70866 9.84085 6.64449 9.80002 6.58616 9.74752C6.53366 9.68919 6.49283 9.63085 6.46366 9.55502C6.43449 9.48502 6.41699 9.40919 6.41699 9.33335C6.41699 9.25752 6.43449 9.18169 6.46366 9.11169C6.49283 9.04169 6.53366 8.97752 6.58616 8.91919C6.64449 8.86669 6.70866 8.82585 6.77866 8.79669C6.91866 8.73835 7.08199 8.73835 7.22199 8.79669C7.29199 8.82585 7.35616 8.86669 7.41449 8.91919C7.46699 8.97752 7.50783 9.04169 7.53699 9.11169C7.56616 9.18169 7.58366 9.25752 7.58366 9.33335C7.58366 9.40919 7.56616 9.48502 7.53699 9.55502Z" fill="#FC8000"/>
</svg>
