<svg width="150" height="150" viewBox="0 0 150 150" fill="none" xmlns="http://www.w3.org/2000/svg">
<path d="M87.5 18.25V70.1875C87.5 76.5625 82.3125 81.75 75.9375 81.75H18.75C15.3125 81.75 12.5 78.9375 12.5 75.5V35.5625C12.5 22.8125 22.8125 12.5 35.5625 12.5H81.6875C84.9375 12.5 87.5 15.0625 87.5 18.25Z" fill="#35C12F" fill-opacity="0.2"/>
<path d="M134.375 96.875C136.125 96.875 137.5 98.25 137.5 100V106.25C137.5 116.625 129.125 125 118.75 125C118.75 114.688 110.312 106.25 100 106.25C89.6875 106.25 81.25 114.688 81.25 125H68.75C68.75 114.688 60.3125 106.25 50 106.25C39.6875 106.25 31.25 114.688 31.25 125C20.875 125 12.5 116.625 12.5 106.25V93.75C12.5 90.3125 15.3125 87.5 18.75 87.5H78.125C86.75 87.5 93.75 80.5 93.75 71.875V37.5C93.75 34.0625 96.5625 31.25 100 31.25H105.25C109.75 31.25 113.875 33.6875 116.125 37.5625L120.125 44.5625C120.687 45.5625 119.938 46.875 118.75 46.875C110.125 46.875 103.125 53.875 103.125 62.5V81.25C103.125 89.875 110.125 96.875 118.75 96.875H134.375Z" fill="#35C12F" fill-opacity="0.2"/>
<path d="M50 137.5C56.9036 137.5 62.5 131.904 62.5 125C62.5 118.096 56.9036 112.5 50 112.5C43.0964 112.5 37.5 118.096 37.5 125C37.5 131.904 43.0964 137.5 50 137.5Z" fill="#35C12F" fill-opacity="0.2"/>
<path d="M100 137.5C106.904 137.5 112.5 131.904 112.5 125C112.5 118.096 106.904 112.5 100 112.5C93.0964 112.5 87.5 118.096 87.5 125C87.5 131.904 93.0964 137.5 100 137.5Z" fill="#35C12F" fill-opacity="0.2"/>
<path d="M137.5 78.3125V87.5H118.75C115.312 87.5 112.5 84.6875 112.5 81.25V62.5C112.5 59.0625 115.312 56.25 118.75 56.25H126.813L135.875 72.125C136.937 74 137.5 76.125 137.5 78.3125Z" fill="#35C12F" fill-opacity="0.2"/>
</svg>
